<svg width="120" height="40" viewBox="0 0 120 40" fill="none" xmlns="http://www.w3.org/2000/svg">
<g clip-path="url(#clip0_926_102)">
<path d="M38.7134 10.4047C34.4611 10.4047 30.4339 12.1959 28.4754 15.2165H28.3646V11.2447H21.2585V39.1595H28.9236V25.958C28.9236 19.8042 33.5098 16.7821 38.7128 16.9513L38.7134 10.4047Z" class="fill-[#263746] dark:fill-[#FFFFFF]"/>
<path d="M15.8318 33.5667C13.259 33.5667 12.2513 32.3359 12.2513 29.259V16.9513H17.7333V11.2441H12.2513V3.9718H4.53077V11.2441H0V16.9513H4.53077V30.6564C4.53077 36.979 7.2718 39.7759 13.5385 39.7759C14.9603 39.7916 16.3759 39.584 17.7333 39.1605V33.2862C17.1201 33.4864 16.4772 33.5809 15.8323 33.5656" class="fill-[#263746] dark:fill-[#FFFFFF]"/>
<path d="M60.978 39.1605C60.4283 36.6631 60.1847 34.108 60.2523 31.5518V21.2036C60.2523 13.9861 55.999 10.1266 42.7969 10.4056V16.9523C50.2938 16.9523 52.8677 17.1189 52.8677 21.7071C46.0415 21.9318 35.4118 22.3225 35.4118 31.3846C35.4118 36.2518 38.5446 39.8333 44.5872 39.8333C48.3913 39.8333 51.5241 38.4333 53.6503 35.4128H53.7626C53.7253 36.6709 53.8381 37.929 54.0985 39.1605H60.978ZM52.8677 28.1969C52.8677 31.7754 51.1892 34.3507 47.2728 34.3507C44.14 34.3507 43.1328 32.7277 43.1328 30.8246C43.1328 28.4195 44.0841 26.742 52.8677 26.4625V28.1969Z" class="fill-[#0088FF] dark:fill-[#FFFFFF]"/>
<path d="M72.4995 18.5169C72.4995 16.8939 73.8431 15.8877 76.3605 15.8877C79.102 15.8877 80.7241 17.0636 80.7241 19.9723H88.1087C88.1087 13.7067 83.5769 10.4052 76.5846 10.4052C69.3113 10.4052 64.781 13.9867 64.781 18.9662C64.781 25.3436 69.8707 26.4057 74.5159 27.6359C78.6569 28.7016 80.8954 29.3139 80.8954 31.6641C80.8954 33.4554 79.5518 34.4616 76.9225 34.4616C73.6205 34.4616 71.9995 32.8395 71.9995 30.0411H64.1102C64.1102 36.8103 68.9779 39.9995 76.5307 39.9995C84.2497 39.9995 89.0072 36.7016 89.0072 30.9354C89.0072 24.4482 83.0759 22.9928 78.4877 21.8728C74.2364 20.8103 72.4995 20.3062 72.4995 18.5169Z" class="fill-[#0088FF] dark:fill-[#FFFFFF]"/>
<path d="M107.692 24.0549L118.376 11.2446H109.706L100.644 22.4897H100.53V0H92.8677V39.1605H100.53V26.0138H100.642L109.987 39.1605H119.496L107.692 24.0549Z" class="fill-[#0088FF] dark:fill-[#FFFFFF]"/>
</g>
<defs>
<clipPath id="clip0_926_102">
<rect width="119.495" height="40" fill="white"/>
</clipPath>
</defs>
</svg>