<svg width="200" height="140" viewBox="0 0 200 140" fill="none" xmlns="http://www.w3.org/2000/svg">
<path d="M37.284 0H2.53846C1.13651 0 0 1.13651 0 2.53847V37.284C0 38.784 1.216 40 2.71605 40C4.2161 40 5.4321 38.784 5.4321 37.284V5.4321H37.284C38.784 5.4321 40 4.2161 40 2.71605C40 1.216 38.784 0 37.284 0Z" class="fill-light-gray-01 dark:fill-dark-gray-01"/>
<path d="M162.716 140L197.462 140C198.863 140 200 138.863 200 137.462L200 102.716C200 101.216 198.784 100 197.284 100C195.784 100 194.568 101.216 194.568 102.716L194.568 134.568L162.716 134.568C161.216 134.568 160 135.784 160 137.284C160 138.784 161.216 140 162.716 140Z" class="fill-light-gray-01 dark:fill-dark-gray-01"/>
<path d="M162.716 0H197.462C198.863 0 200 1.13651 200 2.53847V37.284C200 38.784 198.784 40 197.284 40C195.784 40 194.568 38.784 194.568 37.284V5.4321H162.716C161.216 5.4321 160 4.2161 160 2.71605C160 1.216 161.216 0 162.716 0Z" class="fill-light-gray-01 dark:fill-dark-gray-01"/>
<path d="M37.284 140L2.53846 140C1.13651 140 9.9357e-08 138.863 2.2192e-07 137.462L3.25947e-06 102.716C3.39061e-06 101.216 1.216 100 2.71605 100C4.2161 100 5.4321 101.216 5.4321 102.716L5.4321 134.568L37.284 134.568C38.784 134.568 40 135.784 40 137.284C40 138.784 38.784 140 37.284 140Z" class="fill-light-gray-01 dark:fill-dark-gray-01"/>
<rect x="46" y="34" width="108" height="72" rx="4" class="fill-light-gray-01 dark:fill-dark-gray-01"/>
<path d="M46 38C46 35.7909 47.7909 34 50 34H150C152.209 34 154 35.7909 154 38V45.25H46V38Z" class="fill-light-base-00 dark:fill-dark-base-00"/>
<path d="M102.251 58.1877C102.251 57.2558 103.028 56.5002 103.987 56.5002H123.658C124.617 56.5002 125.394 57.2558 125.394 58.1877C125.394 59.1197 124.617 59.8752 123.658 59.8752H103.987C103.028 59.8752 102.251 59.1197 102.251 58.1877Z" class="fill-light-base-00 dark:fill-dark-base-00"/>
<path d="M102.251 78.4377C102.251 77.5058 103.028 76.7502 103.987 76.7502H114.014C114.973 76.7502 115.75 77.5058 115.75 78.4377C115.75 79.3697 114.973 80.1252 114.014 80.1252H103.987C103.028 80.1252 102.251 79.3697 102.251 78.4377Z" class="fill-light-base-00 dark:fill-dark-base-00"/>
<path d="M102.251 68.3127C102.251 67.3808 103.028 66.6252 103.987 66.6252H141.015C141.974 66.6252 142.751 67.3808 142.751 68.3127C142.751 69.2447 141.974 70.0002 141.015 70.0002H103.987C103.028 70.0002 102.251 69.2447 102.251 68.3127Z" class="fill-light-base-00 dark:fill-dark-base-00"/>
<path d="M118 78.4377C118 77.5058 118.777 76.7502 119.736 76.7502H129.763C130.722 76.7502 131.499 77.5058 131.499 78.4377C131.499 79.3697 130.722 80.1252 129.763 80.1252H119.736C118.777 80.1252 118 79.3697 118 78.4377Z" class="fill-light-base-00 dark:fill-dark-base-00"/>
<path d="M90.2974 62.1321C90.4838 62.1321 90.6626 62.2062 90.7945 62.3381C90.9264 62.47 91.0005 62.6488 91.0005 62.8352V63.5521C91.0005 64.663 89.6925 64.9583 88.7222 64.9583L87.2033 62.1458L90.2974 62.1321ZM88.2724 67.0677C89.166 68.634 89.6225 70.4118 89.5942 72.2148C89.5271 74.168 89.0479 76.0849 88.188 77.8398V80.4415C88.188 80.8145 88.0397 81.1721 87.776 81.4358C87.5123 81.6995 87.1547 81.8478 86.7817 81.8478H84.6724C84.2994 81.8478 83.9418 81.6995 83.6781 81.4358C83.4144 81.1721 83.2661 80.8145 83.2661 80.4415V79.0353H64.9849V80.4415C64.9849 80.8145 64.8366 81.1721 64.5729 81.4358C64.3092 81.6995 63.9516 81.8478 63.5786 81.8478H61.4692C61.0963 81.8478 60.7387 81.6995 60.475 81.4358C60.2113 81.1721 60.063 80.8145 60.063 80.4415V77.8398C59.2047 76.0843 58.7255 74.1677 58.6567 72.2148C58.6285 70.4118 59.085 68.634 59.9785 67.0677C61.1457 64.9021 62.5803 62.2024 64.0991 59.6712C65.2663 57.7306 65.8707 57.2807 67.305 57.0276C69.5566 56.6367 71.8407 56.4623 74.1255 56.5071C76.4103 56.4623 78.6943 56.6367 80.9459 57.0276C82.3522 57.2807 82.9847 57.7306 84.1519 59.6712C85.6706 62.2024 87.1053 64.9443 88.2724 67.0677ZM65.688 71.2865C65.688 70.727 65.4656 70.1907 65.07 69.7951C64.6744 69.3995 64.1381 69.1771 63.5786 69.1771C63.0192 69.1771 62.4828 69.3995 62.0872 69.7951C61.6916 70.1907 61.4692 70.727 61.4692 71.2865C61.4692 71.8459 61.6916 72.383 62.0872 72.7786C62.4828 73.1741 63.0192 73.3958 63.5786 73.3958C63.8568 73.3959 64.132 73.3414 64.3889 73.2345C64.6457 73.1276 64.8794 72.9704 65.0755 72.7731C65.2716 72.5757 65.4263 72.3419 65.5314 72.0844C65.6366 71.8268 65.6898 71.5509 65.688 71.2727V71.2865ZM79.7505 72.6927C79.7505 72.5062 79.6764 72.3275 79.5445 72.1956C79.4126 72.0637 79.2338 71.9896 79.0474 71.9896H69.2036C69.0171 71.9896 68.8383 72.0637 68.7065 72.1956C68.5746 72.3275 68.5005 72.5062 68.5005 72.6927C68.5005 72.8792 68.5746 73.0587 68.7065 73.1905C68.8383 73.3224 69.0171 73.3958 69.2036 73.3958H79.0474C79.1409 73.3959 79.2337 73.3778 79.32 73.3416C79.4062 73.3054 79.4838 73.2518 79.5493 73.185C79.6148 73.1183 79.6666 73.0392 79.701 72.9523C79.7355 72.8653 79.7524 72.7725 79.7505 72.679V72.6927ZM83.8848 64.9165C83.2499 63.381 82.4831 61.9034 81.5928 60.5006C81.4525 60.2922 81.2721 60.1144 81.062 59.9767C80.8519 59.8391 80.6162 59.7447 80.3692 59.6993C78.3077 59.3414 76.2175 59.1765 74.1255 59.207C72.0335 59.1765 69.9432 59.3414 67.8818 59.6993C67.6348 59.7447 67.3991 59.8391 67.189 59.9767C66.9789 60.1144 66.7984 60.2922 66.6582 60.5006C65.7678 61.9034 65.0011 63.381 64.3662 64.9165C67.5935 65.427 70.8583 65.6622 74.1255 65.6196C77.3919 65.6715 80.6567 65.4457 83.8848 64.9446V64.9165ZM86.7817 71.2865C86.7817 70.727 86.5593 70.1907 86.1638 69.7951C85.7682 69.3995 85.2318 69.1771 84.6724 69.1771C84.1129 69.1771 83.5766 69.3995 83.181 69.7951C82.7854 70.1907 82.563 70.727 82.563 71.2865C82.563 71.8459 82.7854 72.383 83.181 72.7786C83.5766 73.1741 84.1129 73.3958 84.6724 73.3958C84.9506 73.3959 85.2258 73.3414 85.4826 73.2345C85.7394 73.1276 85.9732 72.9704 86.1693 72.7731C86.3653 72.5757 86.52 72.3419 86.6252 72.0844C86.7304 71.8268 86.7836 71.5509 86.7817 71.2727V71.2865ZM61.0476 62.1458H57.9536C57.7671 62.1458 57.5883 62.22 57.4565 62.3518C57.3246 62.4837 57.2505 62.6625 57.2505 62.849V63.5665C57.2505 64.6775 58.5585 64.9728 59.5288 64.9728L61.0476 62.1458Z" class="fill-light-base-00 dark:fill-dark-base-00"/>
<rect x="10" y="10" width="179" height="119" rx="1" class="stroke-light-gray-01 dark:stroke-dark-gray-01" stroke-width="2"/>
</svg>
