<svg width="80" height="56" viewBox="0 0 80 56" fill="none" xmlns="http://www.w3.org/2000/svg">
<path d="M14.9136 0H2.53846C1.13651 0 0 1.13651 0 2.53846V14.9136C0 15.5136 0.4864 16 1.08642 16C1.68644 16 2.17284 15.5136 2.17284 14.9136V2.17284H14.9136C15.5136 2.17284 16 1.68644 16 1.08642C16 0.4864 15.5136 0 14.9136 0Z" class="fill-light-gray-01 dark:fill-dark-gray-01"/>
<path d="M65.0865 56L77.4616 56C78.8636 56 80.0001 54.8635 80.0001 53.4615L80.0001 41.0864C80.0001 40.4864 79.5137 40 78.9136 40C78.3136 40 77.8272 40.4864 77.8272 41.0864L77.8272 53.8272L65.0865 53.8272C64.4865 53.8272 64.0001 54.3136 64.0001 54.9136C64.0001 55.5136 64.4865 56 65.0865 56Z" class="fill-light-gray-01 dark:fill-dark-gray-01"/>
<path d="M65.0865 0H77.4617C78.8636 0 80.0001 1.13651 80.0001 2.53846V14.9136C80.0001 15.5136 79.5137 16 78.9137 16C78.3137 16 77.8273 15.5136 77.8273 14.9136V2.17284H65.0865C64.4865 2.17284 64.0001 1.68644 64.0001 1.08642C64.0001 0.4864 64.4865 0 65.0865 0Z" class="fill-light-gray-01 dark:fill-dark-gray-01"/>
<path d="M14.9136 56L2.53846 56C1.13651 56 9.93568e-08 54.8635 2.21919e-07 53.4615L1.30379e-06 41.0864C1.35624e-06 40.4864 0.486402 40 1.08642 40C1.68644 40 2.17284 40.4864 2.17284 41.0864L2.17284 53.8272L14.9136 53.8272C15.5136 53.8272 16 54.3136 16 54.9136C16 55.5136 15.5136 56 14.9136 56Z" class="fill-light-gray-01 dark:fill-dark-gray-01"/>
<rect x="18.4" y="13.6001" width="43.2" height="28.8" rx="4" class="fill-light-gray-01 dark:fill-dark-gray-01"/>
<path d="M18.4 17.6001C18.4 15.391 20.1909 13.6001 22.4 13.6001H57.6C59.8092 13.6001 61.6 15.391 61.6 17.6001V18.1001H18.4V17.6001Z" class="fill-light-base-00 dark:fill-dark-base-00"/>
<path d="M32.3496 25.7503C32.3496 27.49 30.9393 28.9003 29.1996 28.9003C27.4599 28.9003 26.0496 27.49 26.0496 25.7503C26.0496 24.0106 27.4599 22.6003 29.1996 22.6003C30.9393 22.6003 32.3496 24.0106 32.3496 25.7503Z" class="fill-light-base-00 dark:fill-dark-base-00"/>
<path d="M35.4996 32.9503C35.4996 34.69 32.679 36.1003 29.1996 36.1003C25.7202 36.1003 22.8996 34.69 22.8996 32.9503C22.8996 31.2106 25.7202 29.8003 29.1996 29.8003C32.679 29.8003 35.4996 31.2106 35.4996 32.9503Z" class="fill-light-base-00 dark:fill-dark-base-00"/>
<path d="M40.9 23.2753C40.9 22.9025 41.2108 22.6003 41.5942 22.6003H49.4628C49.8463 22.6003 50.1571 22.9025 50.1571 23.2753C50.1571 23.6481 49.8463 23.9503 49.4628 23.9503H41.5942C41.2108 23.9503 40.9 23.6481 40.9 23.2753Z" class="fill-light-base-00 dark:fill-dark-base-00"/>
<path d="M40.9 31.3753C40.9 31.0025 41.2108 30.7003 41.5942 30.7003H56.4057C56.7891 30.7003 57.1 31.0025 57.1 31.3753C57.1 31.7481 56.7891 32.0503 56.4057 32.0503H41.5942C41.2108 32.0503 40.9 31.7481 40.9 31.3753Z" class="fill-light-base-00 dark:fill-dark-base-00"/>
<path d="M40.9 27.3253C40.9 26.9525 41.2108 26.6503 41.5942 26.6503H56.4057C56.7891 26.6503 57.1 26.9525 57.1 27.3253C57.1 27.6981 56.7891 28.0003 56.4057 28.0003H41.5942C41.2108 28.0003 40.9 27.6981 40.9 27.3253Z" class="fill-light-base-00 dark:fill-dark-base-00"/>
<rect x="4.59998" y="4.6001" width="70.4" height="46.4" rx="1" class="stroke-light-gray-01 dark:stroke-dark-gray-01" stroke-width="2"/>
</svg>
