<svg width="80" height="56" viewBox="0 0 80 56" fill="none" xmlns="http://www.w3.org/2000/svg">
<path d="M14.9136 0H2.53846C1.13651 0 0 1.13651 0 2.53846V14.9136C0 15.5136 0.4864 16 1.08642 16C1.68644 16 2.17284 15.5136 2.17284 14.9136V2.17284H14.9136C15.5136 2.17284 16 1.68644 16 1.08642C16 0.4864 15.5136 0 14.9136 0Z" class="fill-light-gray-01 dark:fill-dark-gray-01"/>
<path d="M65.0865 56L77.4616 56C78.8636 56 80.0001 54.8635 80.0001 53.4615L80.0001 41.0864C80.0001 40.4864 79.5137 40 78.9136 40C78.3136 40 77.8272 40.4864 77.8272 41.0864L77.8272 53.8272L65.0865 53.8272C64.4865 53.8272 64.0001 54.3136 64.0001 54.9136C64.0001 55.5136 64.4865 56 65.0865 56Z" class="fill-light-gray-01 dark:fill-dark-gray-01"/>
<path d="M65.0865 0H77.4617C78.8636 0 80.0001 1.13651 80.0001 2.53846V14.9136C80.0001 15.5136 79.5137 16 78.9137 16C78.3137 16 77.8273 15.5136 77.8273 14.9136V2.17284H65.0865C64.4865 2.17284 64.0001 1.68644 64.0001 1.08642C64.0001 0.4864 64.4865 0 65.0865 0Z" class="fill-light-gray-01 dark:fill-dark-gray-01"/>
<path d="M14.9136 56L2.53846 56C1.13651 56 9.93568e-08 54.8635 2.21919e-07 53.4615L1.30379e-06 41.0864C1.35624e-06 40.4864 0.486402 40 1.08642 40C1.68644 40 2.17284 40.4864 2.17284 41.0864L2.17284 53.8272L14.9136 53.8272C15.5136 53.8272 16 54.3136 16 54.9136C16 55.5136 15.5136 56 14.9136 56Z" class="fill-light-gray-01 dark:fill-dark-gray-01"/>
<rect x="4.59998" y="4.59961" width="70.4" height="46.4" rx="1" class="stroke-light-gray-01 dark:stroke-dark-gray-01" stroke-width="2"/>
<path d="M47.5 19.5871C47.5 23.5561 44.2317 26.7737 40.2 26.7737C36.1683 26.7737 32.9 23.5561 32.9 19.5871C32.9 15.618 36.1683 12.4004 40.2 12.4004C44.2317 12.4004 47.5 15.618 47.5 19.5871Z" class="fill-light-base-00 dark:fill-dark-base-00"/>
<path d="M54.8 36.0137C54.8 39.9828 48.2633 43.2004 40.2 43.2004C32.1366 43.2004 25.6 39.9828 25.6 36.0137C25.6 32.0446 32.1366 28.8271 40.2 28.8271C48.2633 28.8271 54.8 32.0446 54.8 36.0137Z" class="fill-light-base-00 dark:fill-dark-base-00"/>
</svg>
