<svg width="200" height="140" viewBox="0 0 200 140" fill="none" xmlns="http://www.w3.org/2000/svg">
<path d="M37.284 0H2.53846C1.13651 0 0 1.13651 0 2.53847V37.284C0 38.784 1.216 40 2.71605 40C4.2161 40 5.4321 38.784 5.4321 37.284V5.4321H37.284C38.784 5.4321 40 4.2161 40 2.71605C40 1.216 38.784 0 37.284 0Z" class="fill-light-gray-01 dark:fill-dark-gray-01"/>
<path d="M162.716 140L197.462 140C198.863 140 200 138.863 200 137.462L200 102.716C200 101.216 198.784 100 197.284 100C195.784 100 194.568 101.216 194.568 102.716L194.568 134.568L162.716 134.568C161.216 134.568 160 135.784 160 137.284C160 138.784 161.216 140 162.716 140Z" class="fill-light-gray-01 dark:fill-dark-gray-01"/>
<path d="M162.716 0H197.462C198.863 0 200 1.13651 200 2.53847V37.284C200 38.784 198.784 40 197.284 40C195.784 40 194.568 38.784 194.568 37.284V5.4321H162.716C161.216 5.4321 160 4.2161 160 2.71605C160 1.216 161.216 0 162.716 0Z" class="fill-light-gray-01 dark:fill-dark-gray-01"/>
<path d="M37.284 140L2.53846 140C1.13651 140 9.9357e-08 138.863 2.2192e-07 137.462L3.25947e-06 102.716C3.39061e-06 101.216 1.216 100 2.71605 100C4.2161 100 5.4321 101.216 5.4321 102.716L5.4321 134.568L37.284 134.568C38.784 134.568 40 135.784 40 137.284C40 138.784 38.784 140 37.284 140Z" class="fill-light-gray-01 dark:fill-dark-gray-01"/>
<rect x="46" y="34" width="108" height="72" rx="4" class="fill-light-gray-01 dark:fill-dark-gray-01"/>
<path d="M46 38C46 35.7909 47.7909 34 50 34H150C152.209 34 154 35.7909 154 38V45.25H46V38Z" class="fill-light-base-00 dark:fill-dark-base-00"/>
<path d="M102.25 58.1876C102.25 57.2556 103.027 56.5001 103.985 56.5001L141.014 57.0626C141.972 57.0626 142.75 57.8181 142.75 58.7501C142.75 59.6821 141.972 60.4376 141.014 60.4376L103.985 59.8751C103.027 59.8751 102.25 59.1196 102.25 58.1876Z" class="fill-light-base-00 dark:fill-dark-base-00"/>
<path d="M102.25 78.4376C102.25 77.5056 103.027 76.7501 103.985 76.7501H118.514C119.472 76.7501 120.25 77.5056 120.25 78.4376C120.25 79.3696 119.472 80.1251 118.514 80.1251H103.985C103.027 80.1251 102.25 79.3696 102.25 78.4376Z" class="fill-light-base-00 dark:fill-dark-base-00"/>
<path d="M102.25 68.3126C102.25 67.3806 103.027 66.6251 103.985 66.6251H141.014C141.972 66.6251 142.75 67.3806 142.75 68.3126C142.75 69.2446 141.972 70.0001 141.014 70.0001H103.985C103.027 70.0001 102.25 69.2446 102.25 68.3126Z" class="fill-light-base-00 dark:fill-dark-base-00"/>
<path d="M74.1245 56.5001C64.8196 56.5001 57.2495 64.0702 57.2495 73.3751C57.2495 82.68 64.8196 90.2501 74.1245 90.2501C83.4294 90.2501 90.9995 82.68 90.9995 73.3751C90.9995 64.0702 83.4294 56.5001 74.1245 56.5001ZM87.2718 79.4019H83.1557C83.4761 77.8925 83.6783 76.2746 83.7437 74.5805H88.5382C88.3965 76.2883 87.9572 77.9128 87.2718 79.4019ZM60.9772 67.3483H65.0934C64.7729 68.8577 64.5707 70.4756 64.5053 72.1698H59.7109C59.8525 70.4619 60.2918 68.8374 60.9772 67.3483ZM69.3031 64.9376H68.2947C69.3932 61.9425 71.0457 59.7819 72.9192 59.1225V72.1698H66.919C66.993 70.4702 67.2214 68.8439 67.5755 67.3483H69.3031C69.9687 67.3483 70.5084 66.8086 70.5084 66.143C70.5084 65.4773 69.9687 64.9376 69.3031 64.9376ZM79.9544 64.9376H75.3299V59.1225C77.2033 59.7819 78.8558 61.9425 79.9544 64.9376ZM59.7109 74.5805H64.5053C64.5707 76.2746 64.7729 77.8925 65.0934 79.4019H60.9772C60.2918 77.9128 59.8525 76.2883 59.7109 74.5805ZM66.919 74.5805H72.9192V79.4019H67.5755C67.2216 77.9064 66.993 76.28 66.919 74.5805ZM72.9192 81.8126V87.6277C71.0457 86.9682 69.3932 84.8078 68.2947 81.8126H72.9192ZM75.3299 87.6277V81.8126H79.9544C78.8558 84.8078 77.2033 86.9684 75.3299 87.6277ZM75.3299 79.4019V67.3483H80.6735C81.0274 68.8439 81.2559 70.4702 81.3298 72.1698H78.9459C78.2803 72.1698 77.7406 72.7095 77.7406 73.3751C77.7406 74.0408 78.2803 74.5805 78.9459 74.5805H81.33C81.256 76.28 81.0276 77.9064 80.6737 79.4019H75.3299ZM83.7437 72.1698C83.6783 70.4756 83.4761 68.8577 83.1557 67.3483H87.2718C87.957 68.8374 88.3965 70.4619 88.5382 72.1698H83.7437ZM85.8657 64.9376H82.5156C81.9373 63.1504 81.1777 61.5765 80.2776 60.2868C82.5117 61.3414 84.4341 62.9512 85.8657 64.9376ZM67.9716 60.2868C67.0714 61.5763 66.3118 63.1502 65.7334 64.9376H62.3833C63.8149 62.9512 65.7373 61.3414 67.9716 60.2868ZM62.3833 81.8126H65.7334C66.3117 83.5999 67.0714 85.1738 67.9716 86.4635C65.7373 85.4088 63.8149 83.7991 62.3833 81.8126ZM80.2774 86.4635C81.1777 85.1739 81.9372 83.6 82.5155 81.8126H85.8656C84.4341 83.7991 82.5117 85.4088 80.2774 86.4635Z" class="fill-light-base-00 dark:fill-dark-base-00"/>
<rect x="10" y="10" width="179" height="119" rx="1" class="stroke-light-gray-01 dark:stroke-dark-gray-01" stroke-width="2"/>
</svg>
