<svg width="236" height="202" viewBox="0 0 236 202" fill="none" xmlns="http://www.w3.org/2000/svg">
<g filter="url(#filter0_d_3443_5807)">
<path d="M28 148.468V44.7335C28 40.2425 31.6408 36.6006 36.132 36.6006H199.867C204.358 36.6006 208 40.2425 208 44.7335V148.468C208 152.961 204.358 156.601 199.867 156.601H36.132C31.6408 156.601 28 152.961 28 148.468Z" fill="#273745"/>
</g>
<path d="M198 146.601H37.9999V46.6027H60.7138V137.358C60.7138 140.599 63.3407 143.226 66.5815 143.226H69.0803H118.011H169.418C172.659 143.226 175.286 140.599 175.286 137.358V46.6027H198V146.601Z" fill="white" fill-opacity="0.9"/>
<path d="M175.286 36.6006H175.284V28.3679C175.284 25.1269 172.657 22.5 169.416 22.5H169.418C172.659 22.5 175.286 25.1269 175.286 28.3679V36.6006Z" fill="url(#paint0_linear_3443_5807)"/>
<path d="M175.284 46.6027H175.286V36.602H175.284V46.6027Z" fill="#B8C1D4"/>
<path d="M169.418 143.226H118.011H169.417C172.658 143.226 175.284 140.599 175.284 137.358V46.6026H175.286V137.358C175.286 140.599 172.659 143.226 169.418 143.226Z" fill="url(#paint1_linear_3443_5807)"/>
<path d="M69.0803 143.226H66.5815C63.3407 143.226 60.7138 140.599 60.7138 137.358V28.368C60.7138 25.127 63.3407 22.5001 66.5815 22.5001H169.416C172.657 22.5001 175.284 25.127 175.284 28.368V137.358C175.284 140.599 172.657 143.226 169.416 143.226H166.918H69.0803Z" fill="white"/>
<path d="M169.417 143.226H118.011V22.5001H169.418C172.658 22.5001 175.284 25.127 175.284 28.368V36.6006V46.6026V137.358C175.284 140.599 172.658 143.226 169.417 143.226Z" fill="white"/>
<path d="M155.918 128.73C155.49 128.52 155.054 128.31 154.612 128.095C150.549 126.127 136.782 117.317 136.313 116.24C136.257 115.732 135.804 107.464 135.843 107.295C135.921 106.994 140.329 97.6665 140.89 93.798C142.665 93.7895 146.741 92.5412 146.741 81.323C146.741 74.9577 146.4 72.1092 144.334 72.1092C144.113 72.1092 143.878 72.1498 143.626 72.2293C143.654 71.8825 143.695 71.4749 143.734 71.0672C144.26 65.8049 145.488 53.4821 140.016 47.2691C134.63 41.1576 127.959 37.7695 120.174 37.1808C119.782 37.147 119.391 37.1267 118.987 37.1098L118.023 37.0895H117.033C117.033 37.0895 116.353 37.1436 116.02 37.1639C108.161 37.717 101.436 41.1119 96.0057 47.2691C90.537 53.4821 91.76 65.8049 92.2843 71.0672C92.3249 71.4749 92.3655 71.8825 92.3994 72.2293C92.144 72.1498 91.9088 72.1092 91.6855 72.1092C89.6219 72.1092 89.2802 74.9577 89.2802 81.323C89.2802 86.0965 90.0092 89.5692 91.447 91.6379C92.7461 93.5054 94.3074 93.7929 95.1346 93.798C95.6911 97.6665 100.099 106.994 100.179 107.295C100.218 107.464 99.7626 115.732 99.7085 116.24C99.2382 117.317 85.4759 126.127 81.4078 128.095C80.968 128.31 80.5299 128.525 80.102 128.73C79.0075 129.266 77.9537 129.789 76.9591 130.308C76.5142 130.54 76.2368 131.001 76.2368 131.504V131.507C76.2368 132.253 76.8424 132.86 77.59 132.86H158.435C159.183 132.86 159.788 132.253 159.788 131.507C159.788 131.005 159.512 130.543 159.068 130.311C158.071 129.79 157.014 129.268 155.918 128.73Z" fill="#FCE7DC"/>
<path d="M143.942 117.29V115.539H161.82V97.6699H163.564V117.29H143.942Z" fill="#3251DF"/>
<path d="M72.457 117.29V97.6699H74.2018V115.539H92.0796V117.29H72.457Z" fill="#3251DF"/>
<path d="M72.457 55.5677V35.9477H92.0796V37.6984H74.2018V55.5677H72.457Z" fill="#3251DF"/>
<path d="M72.457 60.6525V58.9H87.9572V60.6525H72.457Z" fill="#3251DF"/>
<path d="M148.063 60.6525V58.9H163.564V60.6525H148.063Z" fill="#3251DF"/>
<path d="M82.23 57.3557V55.6032H87.9575V57.3557H82.23Z" fill="#3251DF"/>
<path d="M148.063 63.9493V62.1969H153.792V63.9493H148.063Z" fill="#3251DF"/>
<path d="M92.7391 60.6525V58.9H99.7032V60.6525H92.7391Z" fill="#3251DF"/>
<path d="M103.635 60.6525V58.9H110.599V60.6525H103.635Z" fill="#3251DF"/>
<path d="M114.528 60.6525V58.9H121.492V60.6525H114.528Z" fill="#3251DF"/>
<path d="M125.423 60.6525V58.9H132.387V60.6525H125.423Z" fill="#3251DF"/>
<path d="M136.316 60.6525V58.9H143.282V60.6525H136.316Z" fill="#3251DF"/>
<path d="M161.82 55.5677V37.6984H143.942V35.9477H163.564V55.5677H161.82Z" fill="#3251DF"/>
<path d="M72.457 95.6079V89.8787H74.2084V95.6079H72.457Z" fill="#3251DF"/>
<path d="M72.457 87.6408V81.9116H74.2084V87.6408H72.457Z" fill="#3251DF"/>
<path d="M161.813 95.6079V89.8787H163.564V95.6079H161.813Z" fill="#3251DF"/>
<path d="M161.813 87.6408V81.9116H163.564V87.6408H161.813Z" fill="#3251DF"/>
<path d="M158.557 113.961V108.234H160.307V113.961H158.557Z" fill="#3251DF"/>
<path d="M158.557 45.0042V39.2766H160.307V45.0042H158.557Z" fill="#3251DF"/>
<path d="M75.7123 113.961V108.234H77.463V113.961H75.7123Z" fill="#3251DF"/>
<path d="M75.7123 45.0042V39.2766H77.463V45.0042H75.7123Z" fill="#3251DF"/>
<defs>
<filter id="filter0_d_3443_5807" x="0.51339" y="26.7055" width="234.973" height="174.974" filterUnits="userSpaceOnUse" color-interpolation-filters="sRGB">
<feFlood flood-opacity="0" result="BackgroundImageFix"/>
<feColorMatrix in="SourceAlpha" type="matrix" values="0 0 0 0 0 0 0 0 0 0 0 0 0 0 0 0 0 0 127 0" result="hardAlpha"/>
<feOffset dy="17.5914"/>
<feGaussianBlur stdDeviation="13.7433"/>
<feComposite in2="hardAlpha" operator="out"/>
<feColorMatrix type="matrix" values="0 0 0 0 0 0 0 0 0 0 0 0 0 0 0 0 0 0 0.08 0"/>
<feBlend mode="normal" in2="BackgroundImageFix" result="effect1_dropShadow_3443_5807"/>
<feBlend mode="normal" in="SourceGraphic" in2="effect1_dropShadow_3443_5807" result="shape"/>
</filter>
<linearGradient id="paint0_linear_3443_5807" x1="127.091" y1="253.323" x2="102.746" y2="-36.7001" gradientUnits="userSpaceOnUse">
<stop stop-color="#E2EEFF"/>
<stop offset="1" stop-color="#EDF6FF"/>
</linearGradient>
<linearGradient id="paint1_linear_3443_5807" x1="92.5721" y1="166.464" x2="143.428" y2="26.7397" gradientUnits="userSpaceOnUse">
<stop stop-color="#B9D3FF"/>
<stop offset="0.28" stop-color="#B9D3FF"/>
<stop offset="1" stop-color="#C7E0FF"/>
</linearGradient>
</defs>
</svg>
