<svg width="35" height="35" viewBox="0 0 35 35" fill="none" xmlns="http://www.w3.org/2000/svg">
<path fill-rule="evenodd" clip-rule="evenodd" d="M27.4167 8.45833H26.0056L24.5117 5.845C23.9916 4.93704 23.0258 4.37631 21.9794 4.375H13.0206C11.9742 4.37631 11.0084 4.93704 10.4883 5.845L8.99442 8.45833H8.75V6.70833C8.75 6.38619 8.48881 6.125 8.16667 6.125H3.5C3.17785 6.125 2.91667 6.38619 2.91667 6.70833V8.45833C1.30667 8.46023 0.00189583 9.765 0 11.375V27.7083C0.00189583 29.3183 1.30667 30.6231 2.91667 30.625H32.0833C33.6933 30.6231 34.9981 29.3183 35 27.7083V11.375C34.9981 9.765 33.6933 8.46023 32.0833 8.45833H30.9167H28.5833H27.4167ZM7.58333 7.29167H4.08333V8.45833H7.58333V7.29167ZM32.0833 29.4583C33.0498 29.4583 33.8333 28.6748 33.8333 27.7083V11.375C33.8333 10.4085 33.0498 9.625 32.0833 9.625H25.6667C25.4578 9.62544 25.2647 9.51417 25.1603 9.33333L23.4961 6.42367C23.1843 5.88 22.6062 5.54378 21.9794 5.54167H13.0206C12.3923 5.5432 11.8127 5.88051 11.501 6.426L9.83967 9.33333C9.73525 9.51417 9.54217 9.62544 9.33333 9.625H2.91667C1.95016 9.625 1.16667 10.4085 1.16667 11.375V27.7083C1.16667 28.6748 1.95016 29.4583 2.91667 29.4583H32.0833Z" fill="var(--contrast-color)"/>
<path d="M25.3409 20.7451C25.3404 20.7449 25.3399 20.7448 25.3394 20.7445C25.0385 20.6295 24.7014 20.7803 24.5863 21.0811C23.0865 24.9915 18.7006 26.9457 14.7903 25.4458C12.1599 24.437 10.3056 22.053 9.975 19.2553L11.3989 20.6792C11.6228 20.9109 11.992 20.9173 12.2237 20.6935C12.4555 20.4696 12.4619 20.1004 12.238 19.8687C12.2334 19.8638 12.2286 19.859 12.2237 19.8544L9.74866 17.3793C9.52087 17.1516 9.15162 17.1516 8.92383 17.3793L6.44583 19.8544C6.22198 20.0861 6.22839 20.4553 6.46012 20.6792C6.68616 20.8976 7.04462 20.8976 7.27066 20.6792L8.78733 19.1625C9.22359 23.9753 13.4787 27.5232 18.2915 27.0869C21.6167 26.7855 24.4804 24.6182 25.6737 21.4999C25.7902 21.1996 25.6412 20.8616 25.3409 20.7451Z" fill="var(--contrast-color)"/>
<path d="M27.7436 16.0564C27.7387 16.061 27.734 16.0658 27.7293 16.0707L26.2127 17.5873C25.7773 12.7745 21.5229 9.22582 16.71 9.66113C13.3709 9.96315 10.4979 12.1467 9.31291 15.2832C9.19901 15.5845 9.35104 15.9212 9.65241 16.0351C9.95377 16.149 10.2904 15.9969 10.4043 15.6956C11.8875 11.7788 16.265 9.80602 20.1817 11.2891C22.8293 12.2917 24.698 14.6857 25.0279 17.4975L23.604 16.0707C23.3802 15.8389 23.0109 15.8325 22.7792 16.0564C22.5474 16.2801 22.541 16.6495 22.7649 16.8812C22.7695 16.8861 22.7743 16.8908 22.7792 16.8955L25.2542 19.3706C25.482 19.5983 25.8513 19.5983 26.0791 19.3706L28.5541 16.8955C28.7859 16.6717 28.7923 16.3024 28.5684 16.0707C28.3447 15.8389 27.9753 15.8325 27.7436 16.0564Z" fill="var(--contrast-color)"/>
</svg>