<svg width="49" height="32" viewBox="0 0 49 32" fill="none" xmlns="http://www.w3.org/2000/svg">
<rect width="49" height="32" rx="4" class="fill-light-gray-01 dark:fill-dark-gray-01"/>
<path d="M0 4C0 1.79086 1.79086 0 4 0H45C47.2091 0 49 1.79086 49 4V5H0V4Z" class="fill-light-base-00 dark:fill-dark-base-00"/>
<path d="M25.5207 10.75C25.5207 10.3358 25.8733 10 26.3082 10L43.1082 10.25C43.5431 10.25 43.8957 10.5858 43.8957 11C43.8957 11.4142 43.5431 11.75 43.1082 11.75L26.3082 11.5C25.8733 11.5 25.5207 11.1642 25.5207 10.75Z" class="fill-light-base-00 dark:fill-dark-base-00"/>
<path d="M25.5207 19.75C25.5207 19.3358 25.8733 19 26.3082 19H32.8999C33.3348 19 33.6874 19.3358 33.6874 19.75C33.6874 20.1642 33.3348 20.5 32.8999 20.5H26.3082C25.8733 20.5 25.5207 20.1642 25.5207 19.75Z" class="fill-light-base-00 dark:fill-dark-base-00"/>
<path d="M25.5207 15.25C25.5207 14.8358 25.8733 14.5 26.3082 14.5H43.1082C43.5431 14.5 43.8957 14.8358 43.8957 15.25C43.8957 15.6642 43.5431 16 43.1082 16H26.3082C25.8733 16 25.5207 15.6642 25.5207 15.25Z" class="fill-light-base-00 dark:fill-dark-base-00"/>
<path d="M12.7602 10C8.53852 10 5.10394 13.3645 5.10394 17.5C5.10394 21.6355 8.53852 25 12.7602 25C16.9819 25 20.4164 21.6355 20.4164 17.5C20.4164 13.3645 16.9819 10 12.7602 10ZM18.7252 20.1786H16.8577C17.0031 19.5077 17.0948 18.7887 17.1245 18.0357H19.2997C19.2355 18.7948 19.0361 19.5168 18.7252 20.1786ZM6.79522 14.8214H8.66273C8.51733 15.4923 8.42559 16.2113 8.39593 16.9643H6.22066C6.28492 16.2052 6.48426 15.4832 6.79522 14.8214ZM10.5727 13.75H10.1152C10.6136 12.4188 11.3633 11.4585 12.2133 11.1655V16.9643H9.49104C9.52461 16.2089 9.62824 15.4861 9.78888 14.8214H10.5727C10.8747 14.8214 11.1196 14.5816 11.1196 14.2857C11.1196 13.9899 10.8747 13.75 10.5727 13.75ZM15.4052 13.75H13.3071V11.1655C14.157 11.4585 14.9068 12.4188 15.4052 13.75ZM6.22066 18.0357H8.39593C8.42559 18.7887 8.51733 19.5077 8.66273 20.1786H6.79522C6.48426 19.5168 6.28492 18.7948 6.22066 18.0357ZM9.49104 18.0357H12.2133V20.1786H9.78888C9.62831 19.5139 9.52461 18.7911 9.49104 18.0357ZM12.2133 21.25V23.8345C11.3633 23.5414 10.6136 22.5812 10.1152 21.25H12.2133ZM13.3071 23.8345V21.25H15.4052C14.9068 22.5812 14.157 23.5415 13.3071 23.8345ZM13.3071 20.1786V14.8214H15.7315C15.8921 15.4861 15.9957 16.2089 16.0293 16.9643H14.9477C14.6457 16.9643 14.4008 17.2042 14.4008 17.5C14.4008 17.7958 14.6457 18.0357 14.9477 18.0357H16.0293C15.9958 18.7911 15.8921 19.5139 15.7316 20.1786H13.3071ZM17.1245 16.9643C17.0948 16.2113 17.0031 15.4923 16.8577 14.8214H18.7252C19.0361 15.4832 19.2355 16.2052 19.2997 16.9643H17.1245ZM18.0872 13.75H16.5673C16.3049 12.9557 15.9602 12.2562 15.5519 11.6829C16.5655 12.1517 17.4377 12.8671 18.0872 13.75ZM9.9686 11.6829C9.56015 12.2561 9.21555 12.9556 8.95312 13.75H7.43315C8.0827 12.8671 8.9549 12.1517 9.9686 11.6829ZM7.43315 21.25H8.95312C9.21549 22.0443 9.56015 22.7438 9.9686 23.3171C8.9549 22.8483 8.0827 22.1329 7.43315 21.25ZM15.5518 23.3171C15.9602 22.7439 16.3048 22.0444 16.5672 21.25H18.0872C17.4377 22.1329 16.5655 22.8483 15.5518 23.3171Z" class="fill-light-base-00 dark:fill-dark-base-00"/>
</svg>
