<svg width="49" height="32" viewBox="0 0 49 32" fill="none" xmlns="http://www.w3.org/2000/svg">
<rect width="49" height="32" rx="4" class="fill-light-gray-01 dark:fill-dark-gray-01"/>
<path d="M0 4C0 1.79086 1.79086 0 4 0H45C47.2091 0 49 1.79086 49 4V5H0V4Z" class="fill-light-base-00 dark:fill-dark-base-00"/>
<path d="M25.5212 10.7501C25.5212 10.3359 25.8738 10.0001 26.3087 10.0001H35.2337C35.6687 10.0001 36.0212 10.3359 36.0212 10.7501C36.0212 11.1643 35.6687 11.5001 35.2337 11.5001H26.3087C25.8738 11.5001 25.5212 11.1643 25.5212 10.7501Z" class="fill-light-base-00 dark:fill-dark-base-00"/>
<path d="M25.5212 19.7501C25.5212 19.3359 25.8738 19.0001 26.3087 19.0001H30.8582C31.2932 19.0001 31.6457 19.3359 31.6457 19.7501C31.6457 20.1643 31.2932 20.5001 30.8582 20.5001H26.3087C25.8738 20.5001 25.5212 20.1643 25.5212 19.7501Z" class="fill-light-base-00 dark:fill-dark-base-00"/>
<path d="M25.5212 15.2501C25.5212 14.8359 25.8738 14.5001 26.3087 14.5001H43.1087C43.5437 14.5001 43.8962 14.8359 43.8962 15.2501C43.8962 15.6643 43.5437 16.0001 43.1087 16.0001H26.3087C25.8738 16.0001 25.5212 15.6643 25.5212 15.2501Z" class="fill-light-base-00 dark:fill-dark-base-00"/>
<path d="M32.6666 19.7501C32.6666 19.3359 33.0192 19.0001 33.4541 19.0001H38.0036C38.4385 19.0001 38.7911 19.3359 38.7911 19.7501C38.7911 20.1643 38.4385 20.5001 38.0036 20.5001H33.4541C33.0192 20.5001 32.6666 20.1643 32.6666 19.7501Z" class="fill-light-base-00 dark:fill-dark-base-00"/>
<path d="M20.0979 12.5032C20.1825 12.5032 20.2636 12.5361 20.3234 12.5947C20.3832 12.6533 20.4169 12.7328 20.4169 12.8157V13.1343C20.4169 13.628 19.8234 13.7593 19.3832 13.7593L18.6941 12.5093L20.0979 12.5032ZM19.1791 14.6968C19.5846 15.3929 19.7916 16.183 19.7788 16.9844C19.7484 17.8524 19.531 18.7044 19.1408 19.4844V20.6407C19.1408 20.8064 19.0736 20.9654 18.9539 21.0826C18.8343 21.1998 18.672 21.2657 18.5028 21.2657H17.5458C17.3766 21.2657 17.2143 21.1998 17.0947 21.0826C16.975 20.9654 16.9078 20.8064 16.9078 20.6407V20.0157H8.61348V20.6407C8.61348 20.8064 8.54622 20.9654 8.42656 21.0826C8.30691 21.1998 8.14468 21.2657 7.97546 21.2657H7.01843C6.84922 21.2657 6.68698 21.1998 6.56733 21.0826C6.44768 20.9654 6.38041 20.8064 6.38041 20.6407V19.4844C5.99099 18.7041 5.7736 17.8523 5.74239 16.9844C5.72959 16.183 5.93668 15.3929 6.34209 14.6968C6.87165 13.7343 7.52254 12.5344 8.21161 11.4094C8.74116 10.5469 9.01538 10.347 9.66616 10.2345C10.6877 10.0608 11.724 9.98326 12.7606 10.0032C13.7973 9.98326 14.8335 10.0608 15.8551 10.2345C16.4931 10.347 16.7801 10.5469 17.3096 11.4094C17.9987 12.5344 18.6496 13.753 19.1791 14.6968ZM8.9325 16.5718C8.9325 16.3231 8.83159 16.0848 8.65211 15.9089C8.47264 15.7331 8.22928 15.6343 7.97546 15.6343C7.72164 15.6343 7.47829 15.7331 7.29881 15.9089C7.11933 16.0848 7.01843 16.3231 7.01843 16.5718C7.01843 16.8204 7.11933 17.0591 7.29881 17.2349C7.47829 17.4107 7.72164 17.5093 7.97546 17.5093C8.10168 17.5093 8.22654 17.4851 8.34307 17.4376C8.4596 17.3901 8.56565 17.3202 8.65461 17.2325C8.74356 17.1448 8.81375 17.0409 8.86147 16.9264C8.90918 16.8119 8.93334 16.6893 8.9325 16.5657V16.5718ZM15.3127 17.1968C15.3127 17.1139 15.2791 17.0344 15.2192 16.9758C15.1594 16.9172 15.0783 16.8843 14.9937 16.8843H10.5275C10.4429 16.8843 10.3618 16.9172 10.302 16.9758C10.2422 17.0344 10.2085 17.1139 10.2085 17.1968C10.2085 17.2797 10.2422 17.3594 10.302 17.418C10.3618 17.4766 10.4429 17.5093 10.5275 17.5093H14.9937C15.0361 17.5093 15.0782 17.5013 15.1174 17.4852C15.1565 17.4691 15.1917 17.4453 15.2214 17.4156C15.2511 17.3859 15.2746 17.3508 15.2903 17.3121C15.3059 17.2735 15.3136 17.2322 15.3127 17.1907V17.1968ZM17.1884 13.7407C16.9004 13.0583 16.5525 12.4015 16.1485 11.7781C16.0849 11.6855 16.0031 11.6064 15.9077 11.5452C15.8124 11.484 15.7055 11.4421 15.5934 11.4219C14.6581 11.2629 13.7098 11.1896 12.7606 11.2031C11.8115 11.1896 10.8631 11.2629 9.92785 11.4219C9.81575 11.4421 9.70883 11.484 9.61351 11.5452C9.51818 11.6064 9.43631 11.6855 9.37269 11.7781C8.96873 12.4015 8.62084 13.0583 8.33279 13.7407C9.79704 13.9675 11.2783 14.0721 12.7606 14.0532C14.2426 14.0762 15.7238 13.9759 17.1884 13.7532V13.7407ZM18.5028 16.5718C18.5028 16.3231 18.4019 16.0848 18.2224 15.9089C18.0429 15.7331 17.7996 15.6343 17.5458 15.6343C17.292 15.6343 17.0486 15.7331 16.8691 15.9089C16.6896 16.0848 16.5887 16.3231 16.5887 16.5718C16.5887 16.8204 16.6896 17.0591 16.8691 17.2349C17.0486 17.4107 17.292 17.5093 17.5458 17.5093C17.672 17.5093 17.7969 17.4851 17.9134 17.4376C18.0299 17.3901 18.136 17.3202 18.2249 17.2325C18.3139 17.1448 18.3841 17.0409 18.4318 16.9264C18.4795 16.8119 18.5036 16.6893 18.5028 16.5657V16.5718ZM6.82715 12.5093H5.42338C5.33877 12.5093 5.25766 12.5422 5.19783 12.6008C5.138 12.6594 5.10437 12.7389 5.10437 12.8218V13.1407C5.10437 13.6344 5.6978 13.7657 6.13804 13.7657L6.82715 12.5093Z" class="fill-light-base-00 dark:fill-dark-base-00"/>
</svg>
