<svg width="49" height="32" viewBox="0 0 49 32" fill="none" xmlns="http://www.w3.org/2000/svg">
<rect width="49" height="32" rx="4" class="fill-light-gray-01 dark:fill-dark-gray-01"/>
<path d="M0 4C0 1.79086 1.79086 0 4 0H45C47.2091 0 49 1.79086 49 4V5H0V4Z" class="fill-light-base-00 dark:fill-dark-base-00"/>
<path d="M15.8225 13.5001C15.8225 15.4331 14.2229 17.0001 12.2496 17.0001C10.2763 17.0001 8.67668 15.4331 8.67668 13.5001C8.67668 11.5671 10.2763 10.0001 12.2496 10.0001C14.2229 10.0001 15.8225 11.5671 15.8225 13.5001Z" class="fill-light-base-00 dark:fill-dark-base-00"/>
<path d="M19.3954 21.5001C19.3954 23.4331 16.1961 25.0001 12.2496 25.0001C8.30306 25.0001 5.10376 23.4331 5.10376 21.5001C5.10376 19.5671 8.30306 18.0001 12.2496 18.0001C16.1961 18.0001 19.3954 19.5671 19.3954 21.5001Z" class="fill-light-base-00 dark:fill-dark-base-00"/>
<path d="M25.5208 10.7501C25.5208 10.3359 25.8734 10.0001 26.3083 10.0001H35.2333C35.6682 10.0001 36.0208 10.3359 36.0208 10.7501C36.0208 11.1643 35.6682 11.5001 35.2333 11.5001H26.3083C25.8734 11.5001 25.5208 11.1643 25.5208 10.7501Z" class="fill-light-base-00 dark:fill-dark-base-00"/>
<path d="M25.5208 19.7501C25.5208 19.3359 25.8734 19.0001 26.3083 19.0001H43.1083C43.5432 19.0001 43.8958 19.3359 43.8958 19.7501C43.8958 20.1643 43.5432 20.5001 43.1083 20.5001H26.3083C25.8734 20.5001 25.5208 20.1643 25.5208 19.7501Z" class="fill-light-base-00 dark:fill-dark-base-00"/>
<path d="M25.5208 15.2501C25.5208 14.8359 25.8734 14.5001 26.3083 14.5001H43.1083C43.5432 14.5001 43.8958 14.8359 43.8958 15.2501C43.8958 15.6643 43.5432 16.0001 43.1083 16.0001H26.3083C25.8734 16.0001 25.5208 15.6643 25.5208 15.2501Z" class="fill-light-base-00 dark:fill-dark-base-00"/>
</svg>
