<svg width="49" height="32" viewBox="0 0 49 32" fill="none" xmlns="http://www.w3.org/2000/svg">
<rect width="49" height="32" rx="4" class="fill-light-gray-01 dark:fill-dark-gray-01"/>
<path d="M0 4C0 1.79086 1.79086 0 4 0H45C47.2091 0 49 1.79086 49 4V5H0V4Z" class="fill-light-base-00 dark:fill-dark-base-00"/>
<path d="M19.3958 23.5293L15.3984 19.6417C16.3154 18.4086 16.7235 16.8858 16.542 15.3743C16.3606 13.8628 15.6027 12.4724 14.4183 11.4779C13.2338 10.4835 11.7089 9.95727 10.1448 10.0033C8.58075 10.0493 7.09131 10.6641 5.97081 11.7264C4.85031 12.7887 4.18025 14.221 4.09304 15.7404C4.00582 17.2599 4.5078 18.7559 5.49978 19.9328C6.49176 21.1097 7.90157 21.882 9.45066 22.097C10.9998 22.312 12.5754 21.9541 13.8663 21.0941L17.8831 25.0005L19.3958 23.5293ZM5.90361 16.067C5.90361 15.2152 6.16335 14.3824 6.64999 13.6741C7.13662 12.9659 7.8283 12.4138 8.63754 12.0878C9.44679 11.7618 10.3373 11.6765 11.1964 11.8427C12.0554 12.0089 12.8446 12.4191 13.4639 13.0215C14.0833 13.6238 14.5051 14.3913 14.676 15.2268C14.8469 16.0623 14.7592 16.9283 14.424 17.7153C14.0888 18.5023 13.5211 19.175 12.7928 19.6482C12.0645 20.1215 11.2083 20.3741 10.3323 20.3741C9.1583 20.3725 8.03282 19.9182 7.20264 19.1108C6.37246 18.3034 5.90531 17.2088 5.90361 16.067Z" class="fill-light-base-00 dark:fill-dark-base-00"/>
<path d="M25.5208 10.75C25.5208 10.3358 25.8734 10 26.3083 10H35.2333C35.6682 10 36.0208 10.3358 36.0208 10.75C36.0208 11.1642 35.6682 11.5 35.2333 11.5H26.3083C25.8734 11.5 25.5208 11.1642 25.5208 10.75Z" class="fill-light-base-00 dark:fill-dark-base-00"/>
<path d="M25.5208 19.75C25.5208 19.3358 25.8734 19 26.3083 19H43.1083C43.5432 19 43.8958 19.3358 43.8958 19.75C43.8958 20.1642 43.5432 20.5 43.1083 20.5H26.3083C25.8734 20.5 25.5208 20.1642 25.5208 19.75Z" class="fill-light-base-00 dark:fill-dark-base-00"/>
<path d="M25.5208 15.25C25.5208 14.8358 25.8734 14.5 26.3083 14.5H43.1083C43.5432 14.5 43.8958 14.8358 43.8958 15.25C43.8958 15.6642 43.5432 16 43.1083 16H26.3083C25.8734 16 25.5208 15.6642 25.5208 15.25Z" class="fill-light-base-00 dark:fill-dark-base-00"/>
</svg>
