<svg width="49" height="32" viewBox="0 0 49 32" fill="none" xmlns="http://www.w3.org/2000/svg">
<rect width="49" height="32" rx="4" class="fill-light-gray-01 dark:fill-dark-gray-01"/>
<path d="M0 4C0 1.79086 1.79086 0 4 0H45C47.2091 0 49 1.79086 49 4V5H0V4Z" class="fill-light-base-00 dark:fill-dark-base-00"/>
<path d="M13.5936 10H7.16459C6.02841 10 5.10419 10.9055 5.10419 12.0185V22.9815C5.10419 24.0945 6.02859 25 7.16478 25H15.3213C16.4573 25 17.3817 24.0946 17.3817 22.9815V14.1477L13.5936 10ZM13.8935 11.9244L15.6242 13.8192H13.8935V11.9244ZM15.3212 23.9361H7.16459C6.62718 23.9361 6.19005 23.5079 6.19005 22.9815V12.0185C6.19023 11.4921 6.62736 11.0639 7.16459 11.0639H12.8075V14.8829H16.2955V22.9815C16.2957 23.5079 15.8586 23.9361 15.3212 23.9361Z" class="fill-light-base-00 dark:fill-dark-base-00"/>
<path d="M7.0258 16.7231C7.0258 16.5354 7.18556 16.3833 7.38264 16.3833H11.4269C11.6239 16.3833 11.7837 16.5354 11.7837 16.7231C11.7837 16.9108 11.6239 17.063 11.4269 17.063H7.38264C7.18556 17.063 7.0258 16.9108 7.0258 16.7231Z" class="fill-light-base-00 dark:fill-dark-base-00"/>
<path d="M7.0258 20.8013C7.0258 20.6136 7.18556 20.4615 7.38264 20.4615H14.9953C15.1924 20.4615 15.3521 20.6136 15.3521 20.8013C15.3521 20.989 15.1924 21.1412 14.9953 21.1412H7.38264C7.18556 21.1412 7.0258 20.989 7.0258 20.8013Z" class="fill-light-base-00 dark:fill-dark-base-00"/>
<path d="M7.0258 18.7622C7.0258 18.5745 7.18556 18.4224 7.38264 18.4224H14.9953C15.1924 18.4224 15.3521 18.5745 15.3521 18.7622C15.3521 18.9499 15.1924 19.1021 14.9953 19.1021H7.38264C7.18556 19.1021 7.0258 18.9499 7.0258 18.7622Z" class="fill-light-base-00 dark:fill-dark-base-00"/>
<path d="M25.5206 10.75C25.5206 10.3358 25.8731 10 26.3081 10H43.1086C43.5435 10 43.8961 10.3358 43.8961 10.75C43.8961 11.1642 43.5435 11.5 43.1086 11.5H26.3081C25.8731 11.5 25.5206 11.1642 25.5206 10.75Z" class="fill-light-base-00 dark:fill-dark-base-00"/>
<path d="M25.5206 19.75C25.5206 19.3358 25.8731 19 26.3081 19H43.1081C43.543 19 43.8956 19.3358 43.8956 19.75C43.8956 20.1642 43.543 20.5 43.1081 20.5H26.3081C25.8731 20.5 25.5206 20.1642 25.5206 19.75Z" class="fill-light-base-00 dark:fill-dark-base-00"/>
<path d="M25.5206 15.25C25.5206 14.8358 25.8731 14.5 26.3081 14.5H39.0252C39.4602 14.5 39.8127 14.8358 39.8127 15.25C39.8127 15.6642 39.4602 16 39.0252 16H26.3081C25.8731 16 25.5206 15.6642 25.5206 15.25Z" class="fill-light-base-00 dark:fill-dark-base-00"/>
</svg>
