<svg width="200" height="140" viewBox="0 0 200 140" fill="none" xmlns="http://www.w3.org/2000/svg">
<path d="M37.284 0H2.53849C1.13653 0 2.67029e-05 1.13651 2.67029e-05 2.53847V37.284C2.67029e-05 38.784 1.21603 40 2.71608 40C4.21612 40 5.43213 38.784 5.43213 37.284V5.4321H37.284C38.784 5.4321 40 4.2161 40 2.71605C40 1.216 38.784 0 37.284 0Z" class="fill-light-gray-01 dark:fill-dark-gray-01"/>
<path d="M162.716 140L197.462 140C198.864 140 200 138.863 200 137.462L200 102.716C200 101.216 198.784 100 197.284 100C195.784 100 194.568 101.216 194.568 102.716L194.568 134.568L162.716 134.568C161.216 134.568 160 135.784 160 137.284C160 138.784 161.216 140 162.716 140Z" class="fill-light-gray-01 dark:fill-dark-gray-01"/>
<path d="M162.716 0H197.462C198.864 0 200 1.13651 200 2.53847V37.284C200 38.784 198.784 40 197.284 40C195.784 40 194.568 38.784 194.568 37.284V5.4321H162.716C161.216 5.4321 160 4.2161 160 2.71605C160 1.216 161.216 0 162.716 0Z" class="fill-light-gray-01 dark:fill-dark-gray-01"/>
<path d="M37.284 140L2.53846 140C1.13651 140 9.9357e-08 138.863 2.2192e-07 137.462L3.25947e-06 102.716C3.39061e-06 101.216 1.216 100 2.71605 100C4.2161 100 5.4321 101.216 5.4321 102.716L5.4321 134.568L37.284 134.568C38.784 134.568 40 135.784 40 137.284C40 138.784 38.784 140 37.284 140Z" class="fill-light-gray-01 dark:fill-dark-gray-01"/>
<rect x="46" y="34" width="108" height="72" rx="4" class="fill-light-gray-01 dark:fill-dark-gray-01"/>
<path d="M46 38C46 35.7909 47.7909 34 50 34H150C152.209 34 154 35.7909 154 38V45.25H46V38Z" class="fill-light-base-00 dark:fill-dark-base-00"/>
<path d="M75.9614 56.5H61.7913C59.2871 56.5 57.25 58.5375 57.25 61.0417V85.7083C57.25 88.2125 59.2875 90.25 61.7917 90.25H79.7694C82.2733 90.25 84.3107 88.2129 84.3107 85.7083V65.8324L75.9614 56.5ZM76.6225 60.8299L80.4369 65.0931H76.6225V60.8299ZM79.769 87.8563H61.7913C60.6068 87.8563 59.6433 86.8928 59.6433 85.7083V61.0417C59.6437 59.8572 60.6072 58.8937 61.7913 58.8937H74.2287V67.4864H81.9166V85.7083C81.917 86.8928 80.9535 87.8563 79.769 87.8563Z" class="fill-light-base-00 dark:fill-dark-base-00"/>
<path d="M61.4854 71.627C61.4854 71.2047 61.8375 70.8624 62.2719 70.8624H71.1857C71.6201 70.8624 71.9722 71.2047 71.9722 71.627C71.9722 72.0494 71.6201 72.3917 71.1857 72.3917H62.2719C61.8375 72.3917 61.4854 72.0494 61.4854 71.627Z" class="fill-light-base-00 dark:fill-dark-base-00"/>
<path d="M61.4854 80.803C61.4854 80.3807 61.8375 80.0383 62.2719 80.0383H79.0508C79.4852 80.0383 79.8373 80.3807 79.8373 80.803C79.8373 81.2253 79.4852 81.5677 79.0508 81.5677H62.2719C61.8375 81.5677 61.4854 81.2253 61.4854 80.803Z" class="fill-light-base-00 dark:fill-dark-base-00"/>
<path d="M61.4854 76.215C61.4854 75.7927 61.8375 75.4504 62.2719 75.4504H79.0508C79.4852 75.4504 79.8373 75.7927 79.8373 76.215C79.8373 76.6373 79.4852 76.9797 79.0508 76.9797H62.2719C61.8375 76.9797 61.4854 76.6373 61.4854 76.215Z" class="fill-light-base-00 dark:fill-dark-base-00"/>
<path d="M102.249 58.1875C102.249 57.2555 103.027 56.5 103.985 56.5H141.015C141.973 56.5 142.751 57.2555 142.751 58.1875C142.751 59.1195 141.973 59.875 141.015 59.875H103.985C103.027 59.875 102.249 59.1195 102.249 58.1875Z" class="fill-light-base-00 dark:fill-dark-base-00"/>
<path d="M102.249 78.4375C102.249 77.5055 103.027 76.75 103.985 76.75H141.014C141.972 76.75 142.749 77.5055 142.749 78.4375C142.749 79.3695 141.972 80.125 141.014 80.125H103.985C103.027 80.125 102.249 79.3695 102.249 78.4375Z" class="fill-light-base-00 dark:fill-dark-base-00"/>
<path d="M102.249 68.3125C102.249 67.3805 103.027 66.625 103.985 66.625H132.015C132.973 66.625 133.751 67.3805 133.751 68.3125C133.751 69.2445 132.973 70 132.015 70H103.985C103.027 70 102.249 69.2445 102.249 68.3125Z" class="fill-light-base-00 dark:fill-dark-base-00"/>
<rect x="10" y="10" width="179" height="119" rx="1" class="stroke-light-gray-01 dark:stroke-dark-gray-01" stroke-width="2"/>
</svg>
