<?xml version="1.0" encoding="UTF-8" standalone="no"?><!DOCTYPE svg PUBLIC "-//W3C//DTD SVG 1.1//EN" "http://www.w3.org/Graphics/SVG/1.1/DTD/svg11.dtd"><svg width="100%" height="100%" viewBox="0 0 4267 2709" version="1.1" xmlns="http://www.w3.org/2000/svg" xmlns:xlink="http://www.w3.org/1999/xlink" xml:space="preserve" xmlns:serif="http://www.serif.com/" style="fill-rule:evenodd;clip-rule:evenodd;"><g><path d="M2960.5,2625l1132.7,0" style="fill:none;fill-rule:nonzero;stroke:#000;stroke-opacity:0.5;stroke-width:33.33px;"/><path d="M4093.2,2625c27.614,-0 50,-19.035 50,-42.516" style="fill:#fff;fill-rule:nonzero;stroke:#000;stroke-opacity:0.5;stroke-width:33.33px;"/><path d="M4143.19,2582.48l0,-843.527" style="fill:none;fill-rule:nonzero;stroke:#000;stroke-opacity:0.5;stroke-width:33.33px;"/><path d="M2964.66,2625l1132.7,0" style="fill:none;fill-rule:nonzero;stroke:#000;stroke-opacity:0.5;stroke-width:33.33px;"/><path d="M4097.36,2625c27.614,-0 49.999,-19.035 49.999,-42.516" style="fill:#fff;fill-rule:nonzero;stroke:#000;stroke-opacity:0.5;stroke-width:33.33px;"/><path d="M4147.36,2582.48l0.001,-843.527" style="fill:none;fill-rule:nonzero;stroke:#000;stroke-opacity:0.5;stroke-width:33.33px;"/><path d="M2960.5,83.522l1132.7,0" style="fill:none;fill-rule:nonzero;stroke:#000;stroke-opacity:0.5;stroke-width:33.33px;"/><path d="M4093.2,83.522c27.614,-0 50,19.035 50,42.516" style="fill:#fff;fill-rule:nonzero;stroke:#000;stroke-opacity:0.5;stroke-width:33.33px;"/><path d="M4143.19,126.038l0,843.527" style="fill:none;fill-rule:nonzero;stroke:#000;stroke-opacity:0.5;stroke-width:33.33px;"/><path d="M2964.66,83.522l1132.7,0" style="fill:none;fill-rule:nonzero;stroke:#000;stroke-opacity:0.5;stroke-width:33.33px;"/><path d="M4097.36,83.522c27.614,-0 49.999,19.035 49.999,42.516" style="fill:#fff;fill-rule:nonzero;stroke:#000;stroke-opacity:0.5;stroke-width:33.33px;"/><path d="M4147.36,126.038l0.001,843.527" style="fill:none;fill-rule:nonzero;stroke:#000;stroke-opacity:0.5;stroke-width:33.33px;"/><path d="M1306.17,2624.81l-1132.7,0" style="fill:none;fill-rule:nonzero;stroke:#000;stroke-opacity:0.5;stroke-width:33.33px;"/><path d="M173.471,2624.81c-27.614,0 -49.999,-19.035 -49.999,-42.516" style="fill:#fff;fill-rule:nonzero;stroke:#000;stroke-opacity:0.5;stroke-width:33.33px;"/><path d="M123.472,2582.3l-0.001,-843.526" style="fill:none;fill-rule:nonzero;stroke:#000;stroke-opacity:0.5;stroke-width:33.33px;"/><path d="M1302,2624.81l-1132.7,0" style="fill:none;fill-rule:nonzero;stroke:#000;stroke-opacity:0.5;stroke-width:33.33px;"/><path d="M169.305,2624.81c-27.614,0 -50,-19.035 -50,-42.516" style="fill:#fff;fill-rule:nonzero;stroke:#000;stroke-opacity:0.5;stroke-width:33.33px;"/><path d="M119.305,2582.3l-0,-843.526" style="fill:none;fill-rule:nonzero;stroke:#000;stroke-opacity:0.5;stroke-width:33.33px;"/><path d="M1306.17,83.333l-1132.7,0" style="fill:none;fill-rule:nonzero;stroke:#000;stroke-opacity:0.5;stroke-width:33.33px;"/><path d="M173.471,83.334c-27.614,-0 -49.999,19.035 -49.999,42.515" style="fill:#fff;fill-rule:nonzero;stroke:#000;stroke-opacity:0.5;stroke-width:33.33px;"/><path d="M123.472,125.849l-0.001,843.527" style="fill:none;fill-rule:nonzero;stroke:#000;stroke-opacity:0.5;stroke-width:33.33px;"/><path d="M1302,83.333l-1132.7,0" style="fill:none;fill-rule:nonzero;stroke:#000;stroke-opacity:0.5;stroke-width:33.33px;"/><path d="M169.305,83.334c-27.614,-0 -50,19.035 -50,42.515" style="fill:#fff;fill-rule:nonzero;stroke:#000;stroke-opacity:0.5;stroke-width:33.33px;"/><path d="M119.305,125.849l-0,843.527" style="fill:none;fill-rule:nonzero;stroke:#000;stroke-opacity:0.5;stroke-width:33.33px;"/></g></svg>