<?xml version="1.0" encoding="UTF-8" standalone="no"?><!DOCTYPE svg PUBLIC "-//W3C//DTD SVG 1.1//EN" "http://www.w3.org/Graphics/SVG/1.1/DTD/svg11.dtd"><svg width="100%" height="100%" viewBox="0 0 4267 2980" version="1.1" xmlns="http://www.w3.org/2000/svg" xmlns:xlink="http://www.w3.org/1999/xlink" xml:space="preserve" xmlns:serif="http://www.serif.com/" style="fill-rule:evenodd;clip-rule:evenodd;"><g><path d="M2960.5,2887.5l1132.7,0" style="fill:none;fill-rule:nonzero;stroke:#fff;stroke-opacity:0.5;stroke-width:33.33px;"/><path d="M4093.2,2887.5c27.614,0 50,-20.939 50,-46.767" style="fill:#fff;fill-rule:nonzero;stroke:#fff;stroke-opacity:0.5;stroke-width:33.33px;"/><path d="M4143.19,2840.73l-0,-927.88" style="fill:none;fill-rule:nonzero;stroke:#fff;stroke-opacity:0.5;stroke-width:33.33px;"/><path d="M2964.66,2887.5l1132.7,0" style="fill:none;fill-rule:nonzero;stroke:#fff;stroke-opacity:0.5;stroke-width:33.33px;"/><path d="M4097.36,2887.5c27.614,0 49.999,-20.939 49.999,-46.767" style="fill:#fff;fill-rule:nonzero;stroke:#fff;stroke-opacity:0.5;stroke-width:33.33px;"/><path d="M4147.36,2840.73l0.001,-927.88" style="fill:none;fill-rule:nonzero;stroke:#fff;stroke-opacity:0.5;stroke-width:33.33px;"/><path d="M2960.5,91.875l1132.7,0" style="fill:none;fill-rule:nonzero;stroke:#fff;stroke-opacity:0.5;stroke-width:33.33px;"/><path d="M4093.2,91.875c27.614,0 50,20.938 50,46.767" style="fill:#fff;fill-rule:nonzero;stroke:#fff;stroke-opacity:0.5;stroke-width:33.33px;"/><path d="M4143.19,138.642l-0,927.879" style="fill:none;fill-rule:nonzero;stroke:#fff;stroke-opacity:0.5;stroke-width:33.33px;"/><path d="M2964.66,91.875l1132.7,0" style="fill:none;fill-rule:nonzero;stroke:#fff;stroke-opacity:0.5;stroke-width:33.33px;"/><path d="M4097.36,91.874c27.614,0 49.999,20.939 49.999,46.768" style="fill:#fff;fill-rule:nonzero;stroke:#fff;stroke-opacity:0.5;stroke-width:33.33px;"/><path d="M4147.36,138.642l0.001,927.879" style="fill:none;fill-rule:nonzero;stroke:#fff;stroke-opacity:0.5;stroke-width:33.33px;"/><path d="M1306.17,2887.29l-1132.7,0" style="fill:none;fill-rule:nonzero;stroke:#fff;stroke-opacity:0.5;stroke-width:33.33px;"/><path d="M173.471,2887.29c-27.614,0 -49.999,-20.938 -49.999,-46.767" style="fill:#fff;fill-rule:nonzero;stroke:#fff;stroke-opacity:0.5;stroke-width:33.33px;"/><path d="M123.472,2840.53l-0.001,-927.88" style="fill:none;fill-rule:nonzero;stroke:#fff;stroke-opacity:0.5;stroke-width:33.33px;"/><path d="M1302,2887.29l-1132.7,0" style="fill:none;fill-rule:nonzero;stroke:#fff;stroke-opacity:0.5;stroke-width:33.33px;"/><path d="M169.305,2887.29c-27.614,0 -50,-20.938 -50,-46.767" style="fill:#fff;fill-rule:nonzero;stroke:#fff;stroke-opacity:0.5;stroke-width:33.33px;"/><path d="M119.305,2840.53l0,-927.88" style="fill:none;fill-rule:nonzero;stroke:#fff;stroke-opacity:0.5;stroke-width:33.33px;"/><path d="M1306.17,91.667l-1132.7,0" style="fill:none;fill-rule:nonzero;stroke:#fff;stroke-opacity:0.5;stroke-width:33.33px;"/><path d="M173.471,91.667c-27.614,0 -49.999,20.939 -49.999,46.768" style="fill:#fff;fill-rule:nonzero;stroke:#fff;stroke-opacity:0.5;stroke-width:33.33px;"/><path d="M123.472,138.434l-0.001,927.879" style="fill:none;fill-rule:nonzero;stroke:#fff;stroke-opacity:0.5;stroke-width:33.33px;"/><path d="M1302,91.667l-1132.7,0" style="fill:none;fill-rule:nonzero;stroke:#fff;stroke-opacity:0.5;stroke-width:33.33px;"/><path d="M169.305,91.667c-27.614,0 -50,20.939 -50,46.767" style="fill:#fff;fill-rule:nonzero;stroke:#fff;stroke-opacity:0.5;stroke-width:33.33px;"/><path d="M119.305,138.434l0,927.879" style="fill:none;fill-rule:nonzero;stroke:#fff;stroke-opacity:0.5;stroke-width:33.33px;"/></g></svg>