<svg width="32" height="33" viewBox="0 0 32 33" fill="none" xmlns="http://www.w3.org/2000/svg">
<circle cx="16" cy="16.5" r="16" fill="#FF2D55"/>
<path d="M15.99 26.5C10.4685 26.4945 5.99632 22.0149 6 16.4933C6.00368 10.9718 10.4818 6.49816 16.0033 6.5C21.5249 6.50184 26 10.9784 26 16.5C25.9967 22.0254 21.5154 26.5022 15.99 26.5ZM8 16.672C8.04732 21.0732 11.6411 24.6095 16.0425 24.586C20.444 24.5622 23.9995 20.9875 23.9995 16.586C23.9995 12.1845 20.444 8.60977 16.0425 8.58599C11.6411 8.56245 8.04732 12.0988 8 16.5V16.672ZM17 21.5H15V19.5H17V21.5ZM17 17.5H15V11.5H17V17.5Z" fill="white"/>
</svg>
