<?xml version="1.0" encoding="UTF-8" standalone="no"?><!DOCTYPE svg PUBLIC "-//W3C//DTD SVG 1.1//EN" "http://www.w3.org/Graphics/SVG/1.1/DTD/svg11.dtd"><svg width="100%" height="100%" viewBox="0 0 2980 4267" version="1.1" xmlns="http://www.w3.org/2000/svg" xmlns:xlink="http://www.w3.org/1999/xlink" xml:space="preserve" xmlns:serif="http://www.serif.com/" style="fill-rule:evenodd;clip-rule:evenodd;"><g><path d="M2887.75,1305.92l0,-1132.7" style="fill:none;fill-rule:nonzero;stroke:#fff;stroke-opacity:0.5;stroke-width:33.33px;"/><path d="M2887.75,173.217c0,-27.614 -20.939,-50 -46.767,-50" style="fill:#fff;fill-rule:nonzero;stroke:#fff;stroke-opacity:0.5;stroke-width:33.33px;"/><path d="M2840.98,123.227l-927.881,0" style="fill:none;fill-rule:nonzero;stroke:#fff;stroke-opacity:0.5;stroke-width:33.33px;"/><path d="M2887.75,1301.76l0,-1132.7" style="fill:none;fill-rule:nonzero;stroke:#fff;stroke-opacity:0.5;stroke-width:33.33px;"/><path d="M2887.75,169.057c0,-27.614 -20.939,-49.999 -46.767,-49.999" style="fill:#fff;fill-rule:nonzero;stroke:#fff;stroke-opacity:0.5;stroke-width:33.33px;"/><path d="M2840.98,119.057l-927.881,-0.001" style="fill:none;fill-rule:nonzero;stroke:#fff;stroke-opacity:0.5;stroke-width:33.33px;"/><path d="M92.125,1305.92l0,-1132.7" style="fill:none;fill-rule:nonzero;stroke:#fff;stroke-opacity:0.5;stroke-width:33.33px;"/><path d="M92.125,173.217c0,-27.614 20.938,-50 46.767,-50" style="fill:#fff;fill-rule:nonzero;stroke:#fff;stroke-opacity:0.5;stroke-width:33.33px;"/><path d="M138.892,123.227l927.879,0" style="fill:none;fill-rule:nonzero;stroke:#fff;stroke-opacity:0.5;stroke-width:33.33px;"/><path d="M92.125,1301.76l0,-1132.7" style="fill:none;fill-rule:nonzero;stroke:#fff;stroke-opacity:0.5;stroke-width:33.33px;"/><path d="M92.124,169.057c0,-27.614 20.939,-49.999 46.768,-49.999" style="fill:#fff;fill-rule:nonzero;stroke:#fff;stroke-opacity:0.5;stroke-width:33.33px;"/><path d="M138.892,119.057l927.879,-0.001" style="fill:none;fill-rule:nonzero;stroke:#fff;stroke-opacity:0.5;stroke-width:33.33px;"/><path d="M2887.54,2960.25l-0.001,1132.7" style="fill:none;fill-rule:nonzero;stroke:#fff;stroke-opacity:0.5;stroke-width:33.33px;"/><path d="M2887.54,4092.95c-0.001,27.614 -20.939,49.999 -46.767,49.999" style="fill:#fff;fill-rule:nonzero;stroke:#fff;stroke-opacity:0.5;stroke-width:33.33px;"/><path d="M2840.78,4142.94l-927.881,0.001" style="fill:none;fill-rule:nonzero;stroke:#fff;stroke-opacity:0.5;stroke-width:33.33px;"/><path d="M2887.54,2964.42l-0.001,1132.7" style="fill:none;fill-rule:nonzero;stroke:#fff;stroke-opacity:0.5;stroke-width:33.33px;"/><path d="M2887.54,4097.11c-0.001,27.614 -20.939,50 -46.767,50" style="fill:#fff;fill-rule:nonzero;stroke:#fff;stroke-opacity:0.5;stroke-width:33.33px;"/><path d="M2840.78,4147.11l-927.881,-0.001" style="fill:none;fill-rule:nonzero;stroke:#fff;stroke-opacity:0.5;stroke-width:33.33px;"/><path d="M91.916,2960.25l0,1132.7" style="fill:none;fill-rule:nonzero;stroke:#fff;stroke-opacity:0.5;stroke-width:33.33px;"/><path d="M91.916,4092.95c0,27.614 20.939,49.999 46.768,49.999" style="fill:#fff;fill-rule:nonzero;stroke:#fff;stroke-opacity:0.5;stroke-width:33.33px;"/><path d="M138.683,4142.94l927.88,0.001" style="fill:none;fill-rule:nonzero;stroke:#fff;stroke-opacity:0.5;stroke-width:33.33px;"/><path d="M91.916,2964.42l0,1132.7" style="fill:none;fill-rule:nonzero;stroke:#fff;stroke-opacity:0.5;stroke-width:33.33px;"/><path d="M91.916,4097.11c0,27.614 20.939,49.999 46.767,49.999" style="fill:#fff;fill-rule:nonzero;stroke:#fff;stroke-opacity:0.5;stroke-width:33.33px;"/><path d="M138.683,4147.11l927.88,-0.001" style="fill:none;fill-rule:nonzero;stroke:#fff;stroke-opacity:0.5;stroke-width:33.33px;"/></g></svg>